<svg xmlns="http://www.w3.org/2000/svg" xmlns:xlink="http://www.w3.org/1999/xlink" viewBox="0 0 176.49 151.07"><defs><style>.cls-1{fill:none;}.cls-2{clip-path:url(#clip-path);}</style><clipPath id="clip-path" transform="translate(0)"><rect class="cls-1" width="176.49" height="151.07"/></clipPath></defs><g id="Capa_2" data-name="Capa 2"><g id="Capa_1-2" data-name="Capa 1"><g class="cls-2"><path d="M13.8,151.07A13.81,13.81,0,0,1,2,130.13L76.42,6.68a13.81,13.81,0,0,1,23.65,0l74.44,123.45a13.81,13.81,0,0,1-11.82,20.94ZM88.25,6.82a7,7,0,0,0-6,3.38L7.82,133.65a7,7,0,0,0,6,10.6H162.69a7,7,0,0,0,6-10.6L94.23,10.2a7,7,0,0,0-6-3.38" transform="translate(0)"/><path d="M88.3,100c-1.81,0-4-.4-4-2.32,0-6.59-.39-14.7-.77-22.54s-.76-15.84-.76-22.3c0-3.09,2.84-4.19,5.5-4.19,2.49,0,5.39,1.1,5.39,4.19,0,6.46-.39,14.51-.76,22.3s-.77,16-.77,22.54c0,1.74-2.65,2.32-3.86,2.32" transform="translate(0)"/><path d="M88.41,124.41a6,6,0,0,1-5.94-5.94,5.87,5.87,0,0,1,5.94-5.94,6,6,0,0,1,5.83,5.94,6,6,0,0,1-5.83,5.94" transform="translate(0)"/></g></g></g></svg>