<svg xmlns="http://www.w3.org/2000/svg" xmlns:xlink="http://www.w3.org/1999/xlink" viewBox="0 0 155.56 135.61"><defs><style>.cls-1{fill:none;}.cls-2{clip-path:url(#clip-path);}</style><clipPath id="clip-path" transform="translate(0 0)"><rect class="cls-1" width="155.56" height="135.61"/></clipPath></defs><g id="Layer_2" data-name="Layer 2"><g id="Layer_1-2" data-name="Layer 1"><g class="cls-2"><path d="M77.86,135.61a3,3,0,0,1-1.54-.43C75.49,134.72,0,89.51,0,44.12A44.12,44.12,0,0,1,76.32,14l1.46,1.56L79.24,14a44.11,44.11,0,0,1,76.32,30.15c0,23.09-20,46.17-36.77,61.46a267.45,267.45,0,0,1-39.37,29.57,3,3,0,0,1-1.56.45M44.12,6A38.21,38.21,0,0,0,6,44.12c0,37.28,58.92,76.77,70.74,84.31l1.07.69,1.08-.69a279.39,279.39,0,0,0,40-31.17c20.36-19.45,30.69-37.33,30.69-53.14A38.14,38.14,0,0,0,80.21,22.21a3.28,3.28,0,0,1-.72.72,3,3,0,0,1-1.72.54,3,3,0,0,1-2.44-1.27A38.21,38.21,0,0,0,44.15,6Z" transform="translate(0 0)"/></g></g></g></svg>