<svg xmlns="http://www.w3.org/2000/svg" xmlns:xlink="http://www.w3.org/1999/xlink" viewBox="0 0 420.85 369.16">
  <defs>
    <style>
      .cls-1 {
        fill: none;
      }
      .cls-2 {
        clip-path: url(#clip-path);
      }
      .cls-color {
        fill: #ff9191;
      }
    </style>
    <clipPath id="clip-path" transform="translate(0 0)">
      <rect class="cls-1" width="420.85" height="369.17"/>
    </clipPath>
  </defs>
  <g id="Layer_2" data-name="Layer 2">
    <g id="Layer_1-2" data-name="Layer 1">
      <g class="cls-2">
        <path class="cls-color" d="M209.59,369.17a159.15,159.15,0,0,1-85.92-25.1l-4.61-2.95v3H9.86A9.86,9.86,0,0,1,0,334.29V235a9.87,9.87,0,0,1,9.86-9.87h99.33a9.87,9.87,0,0,1,9.87,9.87v82.15l1.08.9a140.82,140.82,0,0,0,89.45,32.13A139,139,0,0,0,263.4,339.5,9.5,9.5,0,1,1,270.71,357a160.37,160.37,0,0,1-61.12,12.14M19,325.14h81v-81H19Z" transform="translate(0 0)"/>
        <path class="cls-color" d="M63.44,181.71a9.53,9.53,0,0,1-7.62-11.79A159.9,159.9,0,0,1,162.22,57.43l3.7-1.16L138.14,11.83A7.74,7.74,0,0,1,144.7,0H276.15a7.73,7.73,0,0,1,6.56,11.83L217,117a7.73,7.73,0,0,1-13.11,0l-27.4-43.84-2.14.57A140.77,140.77,0,0,0,74.21,174.79a9.46,9.46,0,0,1-10.75,6.92Zm147-90.1L255.81,19H165.05Z" transform="translate(0 0)"/>
        <path class="cls-color" d="M361.33,344.15a59.58,59.58,0,0,1-59.52-60.31c.36-27.92,20.51-51.68,47.8-57.58l1.28-.27.22-2.17c.47-4.74.71-9.53.71-14.23a141.45,141.45,0,0,0-58.61-114.2,9.53,9.53,0,0,1-2.67-12.63v0a9.53,9.53,0,0,1,13.75-2.8,159.38,159.38,0,0,1,66.53,129.65c0,4.44-.18,9-.55,13.42l-.23,2.68,1.73.33c28.42,5.52,49.41,30.36,49.07,59.31a59.59,59.59,0,0,1-59.52,58.82m0-100a40.52,40.52,0,1,0,40.51,40.52,40.57,40.57,0,0,0-40.51-40.52" transform="translate(0 0)"/>
      </g>
    </g>
  </g>
</svg>
