<svg xmlns="http://www.w3.org/2000/svg" xmlns:xlink="http://www.w3.org/1999/xlink" viewBox="0 0 171.09 151.08"><defs><style>.cls-1{fill:none;}.cls-2{clip-path:url(#clip-path);}</style><clipPath id="clip-path" transform="translate(0)"><rect class="cls-1" width="171.09" height="151.08"/></clipPath></defs><g id="Layer_2" data-name="Layer 2"><g id="Layer_1-2" data-name="Layer 1"><rect x="18.01" y="50.03" width="30.02" height="6"/><rect x="18.01" y="65.04" width="30.02" height="6"/><g class="cls-2"><path d="M165.09,151.08v-65h-39v65h-6V6H66V151.08H60V34.43L33,11.9,6,34.43V151.08H0V33a3,3,0,0,1,1.07-2.31l30-25a3,3,0,0,1,3.84,0L60,26.6V3a3,3,0,0,1,3-3h60a3,3,0,0,1,3,3V80h42a3,3,0,0,1,3,3v68Z" transform="translate(0)"/><rect x="78.54" y="23.51" width="9.01" height="9.01"/><rect x="98.55" y="23.51" width="9.01" height="9.01"/><rect x="78.54" y="48.53" width="9.01" height="9.01"/><rect x="98.55" y="48.53" width="9.01" height="9.01"/><rect x="78.54" y="73.54" width="9.01" height="9.01"/><rect x="98.55" y="73.54" width="9.01" height="9.01"/></g></g></g></svg>