<svg xmlns="http://www.w3.org/2000/svg" xmlns:xlink="http://www.w3.org/1999/xlink" viewBox="0 0 136.26 155.56"><defs><style>.cls-1{fill:none;}.cls-2{clip-path:url(#clip-path);}</style><clipPath id="clip-path" transform="translate(0 0)"><rect class="cls-1" width="136.26" height="155.56"/></clipPath></defs><g id="Layer_2" data-name="Layer 2"><g id="Layer_1-2" data-name="Layer 1"><g class="cls-2"><path d="M30.73,155.56a12,12,0,0,1-1.9-23.9l1-.15.47-.84a16.66,16.66,0,0,1,14.47-8.51,15.92,15.92,0,0,1,3.88.48l1.32.33.79-1.12a21.35,21.35,0,0,1,13-8.56l1.65-.36-.08-1.69c-.89-19.72-2.2-32.89-13-49.38l-.37-.57-.65-.22a73,73,0,0,0-14.16-3c-8.39-1.21-15-2.16-21.22-9.68S4.69,26.76.05,3.19A2.64,2.64,0,0,1,.61,1,2.66,2.66,0,0,1,2.66,0L3,0h.11c14.2,1,33.55,5.24,45.14,19.73C56.1,29.55,59,42.44,56.75,58.05l-.1.73.4.63a78.9,78.9,0,0,1,9.17,19.45L68.13,85,70,78.86a78.73,78.73,0,0,1,9.17-19.45l.4-.63-.11-.73c-2.2-15.61.66-28.5,8.5-38.29C99.59,5.27,118.94,1,133.13,0h.11l.35,0a2.68,2.68,0,0,1,2.06,1,2.63,2.63,0,0,1,.55,2.21c-4.63,23.57-9.52,37.5-15.83,45.15S107.54,56.81,99.15,58A73.8,73.8,0,0,0,85,61.07l-.65.22-.37.57C73.21,78.35,71.89,91.52,71,111.24l-.08,1.69,1.65.36a21.41,21.41,0,0,1,13,8.56l.79,1.12,1.32-.33a15.86,15.86,0,0,1,3.88-.48A16.67,16.67,0,0,1,106,130.67l.47.84,1,.15a12,12,0,0,1-1.89,23.9Zm-.25-18.69a6.67,6.67,0,0,0,.25,13.34h74.8a6.67,6.67,0,0,0,.28-13.34h-.72a2.77,2.77,0,0,1-2.94-1.79,11.18,11.18,0,0,0-15.81-6.26,2.66,2.66,0,0,1-1.23.3h0a2.67,2.67,0,0,1-2.43-1.56,16,16,0,0,0-29.1,0,2.68,2.68,0,0,1-2.44,1.56,2.62,2.62,0,0,1-1.22-.3,11.41,11.41,0,0,0-5.24-1.3,11.29,11.29,0,0,0-10.57,7.56,2.62,2.62,0,0,1-2.85,1.79h-.78ZM102.93,33.54a2.67,2.67,0,0,1,1.81,4.65,155.29,155.29,0,0,0-11.6,11.74l-3.67,4.15,5.47-.85c1.24-.2,2.42-.36,3.53-.52,7.46-1.05,12.85-1.81,17.77-7.77,5.14-6.23,9.41-17.86,13.44-36.59l.6-2.78L127.46,6c-11,1.47-26.08,5.64-35.28,17.15-5.05,6.31-7.75,14.25-8,23.6L84,52.38l3.69-4.33a154.88,154.88,0,0,1,13.44-13.81,2.66,2.66,0,0,1,1.8-.7M6.58,8.35c4,18.73,8.3,30.36,13.44,36.59,4.91,6,10.31,6.71,17.78,7.77,1.11.16,2.28.32,3.51.52l5.47.85-3.66-4.15A153.64,153.64,0,0,0,31.51,38.19a2.68,2.68,0,0,1-.16-3.78,2.64,2.64,0,0,1,2-.87,2.7,2.7,0,0,1,1.81.7A154.88,154.88,0,0,1,48.57,48.05l3.69,4.33-.17-5.68c-.27-9.36-3-17.29-8-23.6C34.87,11.59,19.81,7.42,8.8,6L6,5.57Z" transform="translate(0 0)"/></g></g></g></svg>