<svg xmlns="http://www.w3.org/2000/svg" xmlns:xlink="http://www.w3.org/1999/xlink" viewBox="0 0 159.56 159.56"><defs><style>.cls-1{fill:none;}.cls-2{clip-path:url(#clip-path);}</style><clipPath id="clip-path" transform="translate(0 0)"><rect class="cls-1" width="159.56" height="159.56"/></clipPath></defs><g id="Layer_2" data-name="Layer 2"><g id="Layer_1-2" data-name="Layer 1"><g class="cls-2"><path d="M106.24,19.56C103.1,8.27,92.11,0,79.78,0S56.46,8.27,53.32,19.56A31.08,31.08,0,0,0,30.91,60.68,22,22,0,0,0,19.72,77.81C8.32,81.21,0,91.7,0,103.15c0,14.36,12.56,26.49,27.42,26.49a25.91,25.91,0,0,0,10.91-2.4v26.09H13.4a3.12,3.12,0,1,0,0,6.23H146.16a3.12,3.12,0,1,0,0-6.23H121.23V127.24a25.91,25.91,0,0,0,10.91,2.4c14.86,0,27.42-12.13,27.42-26.49,0-11.45-8.32-21.94-19.72-25.34a21.93,21.93,0,0,0-11.19-17.13,30.92,30.92,0,0,0,1.93-10.82c0-26.76-24.34-30.3-24.34-30.3m18.11,30.3a24.8,24.8,0,0,1-1.53,8.62A21.83,21.83,0,0,0,96.39,77.81,28.25,28.25,0,0,0,82.9,86.67V61.18l17.85-8.5a3.12,3.12,0,1,0-2.68-5.63L82.9,54.28V31.16a3.12,3.12,0,0,0-6.24,0V44.93L61.49,37.7a3.12,3.12,0,1,0-2.68,5.63l17.85,8.5V86.67a28.27,28.27,0,0,0-13.48-8.86A21.84,21.84,0,0,0,36.74,58.48,24.87,24.87,0,0,1,56.37,25.33,3.14,3.14,0,0,0,59,22.81c1.72-9.3,10.86-16.58,20.82-16.58s19.1,7.28,20.82,16.58a2.79,2.79,0,0,0,2.59,2.52c4.56.46,21.16,3.49,21.16,24.53M44.56,127.24a26,26,0,0,0,10.91,2.4,27.89,27.89,0,0,0,21.19-9.89v33.58H44.56ZM82.9,153.33V119.75a27.89,27.89,0,0,0,21.19,9.89,26,26,0,0,0,10.91-2.4v26.09Zm17.18-70a3.13,3.13,0,0,0,2.45-3.66,15.58,15.58,0,0,1,31.16,0,3.14,3.14,0,0,0,2.46,3.66c9.79,2,17.18,10.5,17.18,19.85,0,11-9.71,20.26-21.19,20.26a19.88,19.88,0,0,1-10.91-3.28V109.75l17-8.48a3.12,3.12,0,0,0-2.79-5.58l-14.19,7.1v-23a3.12,3.12,0,1,0-6.23,0V91l-4-4a3.11,3.11,0,1,0-4.41,4.4L115,99.77v20.36a19.9,19.9,0,0,1-10.91,3.28c-11.49,0-21.19-9.28-21.19-20.26,0-9.35,7.38-17.88,17.18-19.85m-76.67,0a3.13,3.13,0,0,0,2.46-3.66,15.58,15.58,0,0,1,31.16,0,3.14,3.14,0,0,0,2.46,3.66c9.79,2,17.17,10.5,17.17,19.85,0,11-9.7,20.26-21.19,20.26a19.93,19.93,0,0,1-10.91-3.28v-1.66L53,110a3.11,3.11,0,0,0-4.41-4.4l-4,4V89.13a3.12,3.12,0,1,0-6.23,0v13.66l-14.19-7.1a3.12,3.12,0,0,0-2.78,5.58l17,8.48v10.38a19.88,19.88,0,0,1-10.91,3.28c-11.48,0-21.19-9.28-21.19-20.26C6.23,93.8,13.62,85.27,23.41,83.3Z" transform="translate(0 0)"/></g></g></g></svg>