<svg xmlns="http://www.w3.org/2000/svg" xmlns:xlink="http://www.w3.org/1999/xlink" viewBox="0 0 131.91 161.94"><defs><style>.cls-1{fill:none;}.cls-2{clip-path:url(#clip-path);}</style><clipPath id="clip-path" transform="translate(0 0)"><rect class="cls-1" width="131.91" height="161.94"/></clipPath></defs><g id="Capa_2" data-name="Capa 2"><g id="Capa_1-2" data-name="Capa 1"><g class="cls-2"><path d="M65.61,161.94a2.72,2.72,0,0,1-1.12-.24C47.08,153.83,33,145,22.54,135.42S4.89,115,1.49,103.47c-2-6.86-1.6-34-.94-63.61C.71,32.48.86,26.1.87,22.07a2.71,2.71,0,0,1,2.37-2.68C30.55,15.92,50.92,9.56,63.79.5A2.66,2.66,0,0,1,65.35,0a2.69,2.69,0,0,1,1.4.39A140.18,140.18,0,0,0,128.38,19.9a2.72,2.72,0,0,1,2.5,2.71c0,4.16.18,10.69.39,18.25.6,21.87,1.35,49.07-.73,59.48-2.4,12-9.06,23.26-19.81,33.51-10.55,10.07-25.35,19.44-44,27.85a2.68,2.68,0,0,1-1.12.24M64.2,6.75c-12.85,8.11-31.62,14-55.8,17.43l-2.11.3,0,2.13C6.2,30.28,6.1,34.8,6,39.8V40c-.6,26.77-1.09,55.85.72,62,6.14,20.75,25.61,38.86,57.86,53.82l1,.49,1.06-.48c34.54-16,54.23-35,58.54-56.49,2-9.8,1.16-38.95.63-58.23-.15-5.2-.27-9.9-.34-13.71l0-2.21-2.2-.23A143.74,143.74,0,0,1,66.77,6.69L65.47,6Z" transform="translate(0 0)"/><polygon points="84.65 12.05 51.5 48.4 68.08 70.71 51.5 85.05 72.86 95.57 59.15 124.58 84.65 93.98 66.17 85.05 82.74 69.75 99.31 81.55 88.48 61.15 72.22 62.74 64.57 49.67 95.81 17.16 84.65 12.05"/></g></g></g></svg>