<svg xmlns="http://www.w3.org/2000/svg" xmlns:xlink="http://www.w3.org/1999/xlink" viewBox="0 0 141.84 144.3"><defs><style>.cls-1,.cls-3{fill:none;}.cls-2{clip-path:url(#clip-path);}.cls-3{stroke:#000;stroke-linecap:round;stroke-linejoin:round;stroke-width:6px;}</style><clipPath id="clip-path" transform="translate(0 0)"><rect class="cls-1" width="141.85" height="144.3"/></clipPath></defs><g id="Capa_2" data-name="Capa 2"><g id="Capa_1-2" data-name="Capa 1"><g class="cls-2"><circle class="cls-3" cx="26.62" cy="26.62" r="23.62"/><path class="cls-3" d="M17.72,94H35.53a14.72,14.72,0,0,1,14.72,14.72v17.82A14.71,14.71,0,0,1,35.53,141.3H17.72A14.72,14.72,0,0,1,3,126.58V108.76A14.72,14.72,0,0,1,17.72,94Z"/><rect class="cls-3" x="87.94" y="94.05" width="47.25" height="47.25"/><polygon class="cls-3" points="125.21 3 97.93 3 84.29 26.63 97.93 50.25 125.21 50.25 138.84 26.63 125.21 3"/><line class="cls-3" x1="84.29" y1="26.63" x2="50.25" y2="26.63"/><line class="cls-3" x1="26.62" y1="50.25" x2="26.62" y2="94.05"/><line class="cls-3" x1="50.25" y1="117.09" x2="87.94" y2="117.09"/><line class="cls-3" x1="111.57" y1="94.05" x2="111.57" y2="50.25"/></g></g></g></svg>